<?xml version="1.0" standalone="no"?><!DOCTYPE svg PUBLIC "-//W3C//DTD SVG 1.1//EN" "http://www.w3.org/Graphics/SVG/1.1/DTD/svg11.dtd"><svg t="1524454086953" class="icon" style="" viewBox="0 0 1024 1024" version="1.1" xmlns="http://www.w3.org/2000/svg" p-id="1302" id="mx_n_1524454086972" xmlns:xlink="http://www.w3.org/1999/xlink" width="100" height="100"><defs><style type="text/css">@font-face { font-family: uc-nexus-iconfont; src: url("chrome-extension://pogijhnlcfmcppgimcaccdkmbedjkmhi/res/font_9qmmi8b8jsxxbt9.woff") format("woff"), url("chrome-extension://pogijhnlcfmcppgimcaccdkmbedjkmhi/res/font_9qmmi8b8jsxxbt9.ttf") format("truetype"); }
</style></defs><path d="M835.584 451.072c-31.232-210.432-184.832-364.544-353.792-365.568-8.704-16.896-27.648-27.136-47.104-24.064-19.968 3.072-34.304 18.432-37.888 36.864-161.792 49.664-263.68 242.176-232.448 452.096 31.232 210.432 184.832 364.544 353.792 365.568 8.704 16.896 27.648 27.136 47.104 24.064 19.968-3.072 34.304-18.432 37.888-36.864 161.28-49.664 263.68-242.176 232.448-452.096z" fill="#FFFF7B" p-id="1303"></path><path d="M240.64 229.888S169.984 759.296 522.752 906.24c0 0-243.2 22.528-334.848-292.864C125.44 397.312 240.64 229.888 240.64 229.888z" fill="#FFE652" p-id="1304"></path><path d="M496.64 95.744s115.712-14.848 237.568 137.216 119.296 387.584 54.272 488.96c0 0 91.648-183.296-29.696-423.936C660.992 104.96 496.64 95.744 496.64 95.744z" fill="#FFFFFF" p-id="1305"></path><path d="M441.344 70.656c12.8 0 25.088 7.68 31.232 19.456l3.072 5.632h6.144c165.888 1.024 313.856 154.624 343.552 356.864 30.208 202.24-66.56 392.192-225.28 441.344l-5.632 2.048-1.024 6.144c-3.072 14.848-14.848 26.624-29.696 28.672-1.536 0-3.584 0.512-5.12 0.512-12.8 0-25.088-7.68-31.232-19.456l-3.072-5.632h-6.144c-165.888-1.024-313.856-154.624-343.552-356.864-30.208-202.24 66.56-392.192 225.28-441.344l5.632-2.048 1.024-6.144c3.072-14.848 14.848-26.624 29.696-28.672 1.536-0.512 3.072-0.512 5.12-0.512m0-10.24c-2.048 0-4.608 0-6.656 0.512-19.968 3.072-34.304 18.432-37.888 36.864-161.792 50.176-263.68 242.688-232.448 452.608 31.232 210.432 184.832 364.544 353.792 365.568 7.68 14.848 23.552 24.576 40.448 24.576 2.048 0 4.608 0 6.656-0.512 19.968-3.072 34.304-18.432 37.888-36.864 161.28-50.176 263.168-242.688 232.448-452.608-31.232-210.432-184.832-364.544-353.792-365.568-7.68-14.848-23.552-24.576-40.448-24.576z" fill="#353942" p-id="1306"></path><path d="M471.04 103.936s415.744 172.544 247.296 704c0 0 185.856-186.368 67.584-470.016C681.472 88.576 471.04 103.936 471.04 103.936zM426.496 83.456s30.72 5.12 43.008 19.456c0 0-7.168-17.408-19.968-21.504-9.216-3.072-23.04 2.048-23.04 2.048z" fill="#FFFC94" p-id="1307"></path><path d="M528.896 908.8s9.728 19.968 27.648 20.992c20.992 1.536 25.6-22.016 25.6-22.016s-21.504 15.872-53.248 1.024z" fill="#FFE652" p-id="1308"></path><path d="M312.32 283.136m-20.992 0a20.992 20.992 0 1 0 41.984 0 20.992 20.992 0 1 0-41.984 0Z" fill="#FFF86C" p-id="1309"></path><path d="M426.496 284.672m-20.992 0a20.992 20.992 0 1 0 41.984 0 20.992 20.992 0 1 0-41.984 0Z" fill="#FFF86C" p-id="1310"></path><path d="M478.208 232.96m-16.384 0a16.384 16.384 0 1 0 32.768 0 16.384 16.384 0 1 0-32.768 0Z" fill="#FFF86C" p-id="1311"></path><path d="M656.343861 399.041037a16.384 16.384 0 1 0 16.384-28.377921 16.384 16.384 0 1 0-16.384 28.377921Z" fill="#FFF86C" p-id="1312"></path><path d="M352.689788 473.869095a16.896 16.896 0 1 0 20.267699-27.039225 16.896 16.896 0 1 0-20.267699 27.039225Z" fill="#FFF86C" p-id="1313"></path><path d="M590.848 273.408m-9.728 0a9.728 9.728 0 1 0 19.456 0 9.728 9.728 0 1 0-19.456 0Z" fill="#FFF86C" p-id="1314"></path><path d="M507.904 347.136m-14.848 0a14.848 14.848 0 1 0 29.696 0 14.848 14.848 0 1 0-29.696 0Z" fill="#FFF86C" p-id="1315"></path><path d="M571.392 517.12m-22.528 0a22.528 22.528 0 1 0 45.056 0 22.528 22.528 0 1 0-45.056 0Z" fill="#FFFF7B" p-id="1316"></path><path d="M433.664 570.88m-12.288 0a12.288 12.288 0 1 0 24.576 0 12.288 12.288 0 1 0-24.576 0Z" fill="#FFF86C" p-id="1317"></path><path d="M363.008 380.928m-12.288 0a12.288 12.288 0 1 0 24.576 0 12.288 12.288 0 1 0-24.576 0Z" fill="#FFF86C" p-id="1318"></path><path d="M571.392 418.304m-9.728 0a9.728 9.728 0 1 0 19.456 0 9.728 9.728 0 1 0-19.456 0Z" fill="#FFF86C" p-id="1319"></path><path d="M472.576 477.696m-9.728 0a9.728 9.728 0 1 0 19.456 0 9.728 9.728 0 1 0-19.456 0Z" fill="#FFF86C" p-id="1320"></path><path d="M868.864 818.688m-1.536 0a1.536 1.536 0 1 0 3.072 0 1.536 1.536 0 1 0-3.072 0Z" fill="#E8D952" p-id="1321"></path></svg>